<svg width="354" height="304" viewBox="0 0 354 304" fill="none" xmlns="http://www.w3.org/2000/svg">
<g filter="url(#filter0_d_156_2)">
<rect x="5" y="1" width="344" height="294" rx="11" fill="#111D4A" stroke="#111D4A" stroke-width="2"/>
</g>
<circle cx="176.5" cy="53.5" r="27" fill="white" stroke="#FFBE0B" stroke-width="3"/>
<circle cx="165.73" cy="47.4586" r="4.67281" fill="#111D4A" stroke="#FFBE0B" stroke-width="3"/>
<circle cx="187.532" cy="47.4586" r="4.67281" fill="#111D4A" stroke="#FFBE0B" stroke-width="3"/>
<path d="M218.852 55.1506V54.7159C218.861 53.2244 218.993 52.0355 219.249 51.1491C219.513 50.2628 219.896 49.5469 220.399 49.0014C220.902 48.456 221.507 47.9616 222.214 47.5185C222.743 47.1776 223.216 46.8239 223.634 46.4574C224.051 46.0909 224.384 45.6861 224.631 45.2429C224.878 44.7912 225.001 44.2884 225.001 43.7344C225.001 43.1463 224.861 42.6307 224.58 42.1875C224.298 41.7443 223.919 41.4034 223.442 41.1648C222.973 40.9261 222.453 40.8068 221.882 40.8068C221.328 40.8068 220.804 40.9304 220.31 41.1776C219.815 41.4162 219.411 41.7741 219.095 42.2514C218.78 42.7202 218.609 43.304 218.584 44.0028H213.368C213.411 42.2983 213.82 40.892 214.595 39.7841C215.371 38.6676 216.398 37.8366 217.676 37.2912C218.955 36.7372 220.365 36.4602 221.908 36.4602C223.604 36.4602 225.104 36.7415 226.408 37.304C227.712 37.858 228.734 38.6634 229.476 39.7202C230.217 40.777 230.588 42.0511 230.588 43.5426C230.588 44.5398 230.422 45.4261 230.089 46.2017C229.766 46.9687 229.31 47.6506 228.722 48.2472C228.134 48.8352 227.439 49.3679 226.638 49.8452C225.964 50.2457 225.411 50.6634 224.976 51.098C224.55 51.5327 224.23 52.0355 224.017 52.6065C223.813 53.1776 223.706 53.8807 223.697 54.7159V55.1506H218.852ZM221.384 63.3324C220.531 63.3324 219.803 63.0341 219.197 62.4375C218.601 61.8324 218.307 61.108 218.315 60.2642C218.307 59.429 218.601 58.7131 219.197 58.1165C219.803 57.5199 220.531 57.2216 221.384 57.2216C222.193 57.2216 222.905 57.5199 223.518 58.1165C224.132 58.7131 224.443 59.429 224.452 60.2642C224.443 60.8267 224.294 61.3423 224.004 61.8111C223.723 62.2713 223.352 62.642 222.892 62.9233C222.432 63.196 221.929 63.3324 221.384 63.3324Z" fill="#FFBE0B"/>
<path d="M189 65.5C189 69.0899 181.282 61.5 177.692 61.5C174.102 61.5 167 69.2595 167 65.6697C167 62.0798 173.907 59.1697 177.497 59.1697C181.087 59.1697 189 61.9101 189 65.5Z" fill="#FFBE0B"/>
<rect x="32" y="185" width="6" height="45" rx="3" transform="rotate(-90 32 185)" fill="#FFBE0B"/>
<rect x="83" y="107" width="12" height="115" rx="6" fill="#FFBE0B"/>
<rect x="48" y="153" width="6" height="29" rx="3" transform="rotate(-90 48 153)" fill="#FFBE0B"/>
<rect x="32" y="169" width="6" height="45" rx="3" transform="rotate(-90 32 169)" fill="#FFBE0B"/>
<rect x="101" y="185" width="6" height="46" rx="3" transform="rotate(-90 101 185)" fill="#FFBE0B"/>
<rect x="101" y="153" width="6" height="46" rx="3" transform="rotate(-90 101 153)" fill="#FFBE0B"/>
<rect x="101" y="170" width="6" height="46" rx="3" transform="rotate(-90 101 170)" fill="#FFBE0B"/>
<rect x="22.5" y="113.5" width="64" height="103" rx="9.5" stroke="#FFBE0B" stroke-width="5"/>
<rect x="91.5" y="113.5" width="65" height="103" rx="9.5" stroke="#FFBE0B" stroke-width="5"/>
<rect x="177" y="93" width="12" height="189" rx="6" fill="#FFBE0B"/>
<rect x="207.5" y="116.5" width="116" height="78" rx="9.5" stroke="#FFBE0B" stroke-width="5"/>
<rect x="256" y="197" width="22" height="16" fill="#FFBE0B"/>
<rect x="247" y="213" width="39" height="7" rx="3.5" fill="#FFBE0B"/>
<circle cx="263" cy="166" r="18" fill="#3A86FF"/>
<circle cx="290" cy="153" r="18" fill="#FFBE0B"/>
<circle cx="242" cy="147" r="18" fill="#FF006E"/>
<defs>
<filter id="filter0_d_156_2" x="0" y="0" width="354" height="304" filterUnits="userSpaceOnUse" color-interpolation-filters="sRGB">
<feFlood flood-opacity="0" result="BackgroundImageFix"/>
<feColorMatrix in="SourceAlpha" type="matrix" values="0 0 0 0 0 0 0 0 0 0 0 0 0 0 0 0 0 0 127 0" result="hardAlpha"/>
<feOffset dy="4"/>
<feGaussianBlur stdDeviation="2"/>
<feComposite in2="hardAlpha" operator="out"/>
<feColorMatrix type="matrix" values="0 0 0 0 0 0 0 0 0 0 0 0 0 0 0 0 0 0 0.25 0"/>
<feBlend mode="normal" in2="BackgroundImageFix" result="effect1_dropShadow_156_2"/>
<feBlend mode="normal" in="SourceGraphic" in2="effect1_dropShadow_156_2" result="shape"/>
</filter>
</defs>
</svg>
